<mxfile host="app.diagrams.net" agent="Mozilla/5.0 (Macintosh; Intel Mac OS X 10_15_7) AppleWebKit/537.36 (KHTML, like Gecko) Chrome/132.0.0.0 YaBrowser/25.2.0.0 Safari/537.36" version="26.2.13">
  <diagram name="Страница — 1" id="fwhvAVEIba38hFwUUVOV">
    <mxGraphModel grid="1" page="1" gridSize="10" guides="1" tooltips="1" connect="1" arrows="1" fold="1" pageScale="1" pageWidth="827" pageHeight="1169" math="0" shadow="0">
      <root>
        <mxCell id="0" />
        <mxCell id="1" parent="0" />
        <mxCell id="EspXqNCbKmPwOJEOlOzy-36" style="edgeStyle=orthogonalEdgeStyle;rounded=0;orthogonalLoop=1;jettySize=auto;html=1;entryX=0;entryY=0.5;entryDx=0;entryDy=0;" edge="1" parent="1" source="EspXqNCbKmPwOJEOlOzy-1" target="EspXqNCbKmPwOJEOlOzy-2">
          <mxGeometry relative="1" as="geometry" />
        </mxCell>
        <mxCell id="EspXqNCbKmPwOJEOlOzy-1" value="Client" style="shape=umlActor;verticalLabelPosition=bottom;verticalAlign=top;html=1;outlineConnect=0;fillColor=#e1d5e7;strokeColor=#9673a6;" vertex="1" parent="1">
          <mxGeometry x="34" y="220" width="30" height="60" as="geometry" />
        </mxCell>
        <mxCell id="EspXqNCbKmPwOJEOlOzy-2" value="Manager" style="rounded=1;whiteSpace=wrap;html=1;fillColor=#dae8fc;strokeColor=#6c8ebf;" vertex="1" parent="1">
          <mxGeometry x="144" y="210" width="120" height="80" as="geometry" />
        </mxCell>
        <mxCell id="EspXqNCbKmPwOJEOlOzy-3" value="" style="strokeWidth=2;html=1;shape=mxgraph.flowchart.database;whiteSpace=wrap;fillColor=#ffe6cc;strokeColor=#d79b00;" vertex="1" parent="1">
          <mxGeometry x="444" y="30" width="60" height="60" as="geometry" />
        </mxCell>
        <mxCell id="EspXqNCbKmPwOJEOlOzy-34" style="edgeStyle=orthogonalEdgeStyle;rounded=0;orthogonalLoop=1;jettySize=auto;html=1;entryX=0.25;entryY=0;entryDx=0;entryDy=0;" edge="1" parent="1" source="EspXqNCbKmPwOJEOlOzy-6" target="EspXqNCbKmPwOJEOlOzy-2">
          <mxGeometry relative="1" as="geometry" />
        </mxCell>
        <mxCell id="EspXqNCbKmPwOJEOlOzy-6" value="" style="strokeWidth=2;html=1;shape=mxgraph.flowchart.database;whiteSpace=wrap;fillColor=#ffe6cc;strokeColor=#d79b00;" vertex="1" parent="1">
          <mxGeometry x="434" y="40" width="60" height="60" as="geometry" />
        </mxCell>
        <mxCell id="EspXqNCbKmPwOJEOlOzy-7" value="MongoDB" style="strokeWidth=2;html=1;shape=mxgraph.flowchart.database;whiteSpace=wrap;fillColor=#ffe6cc;strokeColor=#d79b00;" vertex="1" parent="1">
          <mxGeometry x="424" y="50" width="60" height="60" as="geometry" />
        </mxCell>
        <mxCell id="EspXqNCbKmPwOJEOlOzy-8" value="" style="rounded=1;whiteSpace=wrap;html=1;fillColor=#fff2cc;strokeColor=#d6b656;" vertex="1" parent="1">
          <mxGeometry x="674" y="200" width="120" height="60" as="geometry" />
        </mxCell>
        <mxCell id="EspXqNCbKmPwOJEOlOzy-9" value="" style="rounded=1;whiteSpace=wrap;html=1;fillColor=#fff2cc;strokeColor=#d6b656;" vertex="1" parent="1">
          <mxGeometry x="664" y="210" width="120" height="60" as="geometry" />
        </mxCell>
        <mxCell id="EspXqNCbKmPwOJEOlOzy-10" value="Worker" style="rounded=1;whiteSpace=wrap;html=1;fillColor=#fff2cc;strokeColor=#d6b656;" vertex="1" parent="1">
          <mxGeometry x="654" y="220" width="120" height="60" as="geometry" />
        </mxCell>
        <mxCell id="EspXqNCbKmPwOJEOlOzy-22" style="edgeStyle=orthogonalEdgeStyle;rounded=0;orthogonalLoop=1;jettySize=auto;html=1;exitX=1;exitY=0.25;exitDx=0;exitDy=0;entryX=0;entryY=0.25;entryDx=0;entryDy=0;" edge="1" parent="1" source="EspXqNCbKmPwOJEOlOzy-11" target="EspXqNCbKmPwOJEOlOzy-10">
          <mxGeometry relative="1" as="geometry" />
        </mxCell>
        <mxCell id="EspXqNCbKmPwOJEOlOzy-11" value="RabbitMQ" style="shape=parallelogram;perimeter=parallelogramPerimeter;whiteSpace=wrap;html=1;fixedSize=1;fillColor=#f8cecc;strokeColor=#b85450;" vertex="1" parent="1">
          <mxGeometry x="394" y="215" width="120" height="70" as="geometry" />
        </mxCell>
        <mxCell id="EspXqNCbKmPwOJEOlOzy-12" style="edgeStyle=orthogonalEdgeStyle;rounded=0;orthogonalLoop=1;jettySize=auto;html=1;entryX=0.5;entryY=1;entryDx=0;entryDy=0;entryPerimeter=0;" edge="1" parent="1" source="EspXqNCbKmPwOJEOlOzy-2" target="EspXqNCbKmPwOJEOlOzy-7">
          <mxGeometry relative="1" as="geometry">
            <Array as="points">
              <mxPoint x="204" y="130" />
              <mxPoint x="454" y="130" />
            </Array>
          </mxGeometry>
        </mxCell>
        <mxCell id="EspXqNCbKmPwOJEOlOzy-18" style="edgeStyle=orthogonalEdgeStyle;rounded=0;orthogonalLoop=1;jettySize=auto;html=1;exitX=1;exitY=0.25;exitDx=0;exitDy=0;entryX=0.118;entryY=0.222;entryDx=0;entryDy=0;entryPerimeter=0;" edge="1" parent="1" source="EspXqNCbKmPwOJEOlOzy-2" target="EspXqNCbKmPwOJEOlOzy-11">
          <mxGeometry relative="1" as="geometry" />
        </mxCell>
        <mxCell id="EspXqNCbKmPwOJEOlOzy-19" style="edgeStyle=orthogonalEdgeStyle;rounded=0;orthogonalLoop=1;jettySize=auto;html=1;exitX=0;exitY=0.75;exitDx=0;exitDy=0;entryX=1.023;entryY=0.692;entryDx=0;entryDy=0;entryPerimeter=0;" edge="1" parent="1" source="EspXqNCbKmPwOJEOlOzy-11" target="EspXqNCbKmPwOJEOlOzy-2">
          <mxGeometry relative="1" as="geometry" />
        </mxCell>
        <mxCell id="EspXqNCbKmPwOJEOlOzy-23" style="edgeStyle=orthogonalEdgeStyle;rounded=0;orthogonalLoop=1;jettySize=auto;html=1;exitX=0;exitY=0.75;exitDx=0;exitDy=0;entryX=0.877;entryY=0.761;entryDx=0;entryDy=0;entryPerimeter=0;" edge="1" parent="1" source="EspXqNCbKmPwOJEOlOzy-10" target="EspXqNCbKmPwOJEOlOzy-11">
          <mxGeometry relative="1" as="geometry">
            <Array as="points">
              <mxPoint x="654" y="268" />
              <mxPoint x="594" y="268" />
            </Array>
          </mxGeometry>
        </mxCell>
        <mxCell id="EspXqNCbKmPwOJEOlOzy-24" value="Публикация задачи" style="text;html=1;align=center;verticalAlign=middle;resizable=0;points=[];autosize=1;strokeColor=none;fillColor=none;" vertex="1" parent="1">
          <mxGeometry x="264" y="205" width="140" height="30" as="geometry" />
        </mxCell>
        <mxCell id="EspXqNCbKmPwOJEOlOzy-25" value="Получение ответа" style="text;html=1;align=center;verticalAlign=middle;resizable=0;points=[];autosize=1;strokeColor=none;fillColor=none;" vertex="1" parent="1">
          <mxGeometry x="264" y="260" width="130" height="30" as="geometry" />
        </mxCell>
        <mxCell id="EspXqNCbKmPwOJEOlOzy-28" value="Получение задачи" style="text;html=1;align=center;verticalAlign=middle;resizable=0;points=[];autosize=1;strokeColor=none;fillColor=none;" vertex="1" parent="1">
          <mxGeometry x="514" y="210" width="130" height="30" as="geometry" />
        </mxCell>
        <mxCell id="EspXqNCbKmPwOJEOlOzy-29" value="Отправка ответа" style="text;html=1;align=center;verticalAlign=middle;resizable=0;points=[];autosize=1;strokeColor=none;fillColor=none;" vertex="1" parent="1">
          <mxGeometry x="518" y="262" width="120" height="30" as="geometry" />
        </mxCell>
        <mxCell id="EspXqNCbKmPwOJEOlOzy-30" value="Сохранение задачи" style="text;html=1;align=center;verticalAlign=middle;resizable=0;points=[];autosize=1;strokeColor=none;fillColor=none;" vertex="1" parent="1">
          <mxGeometry x="234" y="106" width="140" height="30" as="geometry" />
        </mxCell>
        <mxCell id="EspXqNCbKmPwOJEOlOzy-31" style="edgeStyle=orthogonalEdgeStyle;rounded=0;orthogonalLoop=1;jettySize=auto;html=1;exitX=0.75;exitY=0;exitDx=0;exitDy=0;entryX=0.5;entryY=1;entryDx=0;entryDy=0;entryPerimeter=0;" edge="1" parent="1" source="EspXqNCbKmPwOJEOlOzy-2" target="EspXqNCbKmPwOJEOlOzy-7">
          <mxGeometry relative="1" as="geometry" />
        </mxCell>
        <mxCell id="EspXqNCbKmPwOJEOlOzy-32" value="Сохранение результата хеша" style="text;html=1;align=center;verticalAlign=middle;resizable=0;points=[];autosize=1;strokeColor=none;fillColor=none;" vertex="1" parent="1">
          <mxGeometry x="234" y="137" width="190" height="30" as="geometry" />
        </mxCell>
        <mxCell id="EspXqNCbKmPwOJEOlOzy-35" value="Получение сохраненного результата работы" style="text;html=1;align=center;verticalAlign=middle;resizable=0;points=[];autosize=1;strokeColor=none;fillColor=none;" vertex="1" parent="1">
          <mxGeometry x="154" y="45" width="280" height="30" as="geometry" />
        </mxCell>
        <mxCell id="EspXqNCbKmPwOJEOlOzy-38" value="API" style="text;html=1;align=center;verticalAlign=middle;resizable=0;points=[];autosize=1;strokeColor=none;fillColor=none;" vertex="1" parent="1">
          <mxGeometry x="84" y="225" width="40" height="30" as="geometry" />
        </mxCell>
      </root>
    </mxGraphModel>
  </diagram>
</mxfile>
